<svg id="レイヤー_1" data-name="レイヤー 1" xmlns="http://www.w3.org/2000/svg" viewBox="0 0 29.02 36.01"><defs><style>.cls-1{fill:#fff;}</style></defs><title>pencil</title><path id="楕円形_623" data-name="楕円形 623" class="cls-1" d="M28.21,11.93l0,0c1.89-3,.44-7.4-3.35-10s-8.48-2.48-10.63.3l0,0L.06,22.2,0,32.32s-.18,2.61,1,3.4,3.52-.27,3.52-.27L14.1,32ZM13.11,30.4,10,28.26l11.69-16.6L24.8,13.8ZM1.59,30.21l.18-6.53,10.35,7.2L6,33.27Zm4.23-4.89L17.51,8.72l3.35,2.33L9.17,27.65ZM13.57,6l3.08,2.14L5,24.72,1.88,22.58ZM23.71,3.46C26.64,5.5,27.9,9,26.46,11c-.19.27-.45.65-.66.9a20.23,20.23,0,0,1-1.74-1.12l-1.37-1-2.3-1.62L18.18,6.66l-1.36-.93a16.46,16.46,0,0,1-1.76-1.34c.11-.2.31-.51.6-.91,1.44-2,5.13-2,8.06,0Z" transform="translate(0.01 0.01)"/></svg>