<svg id="レイヤー_1" data-name="レイヤー 1" xmlns="http://www.w3.org/2000/svg" viewBox="0 0 45.69 38.21"><defs><style>.cls-1{fill:#fff;}</style></defs><title>tasks</title><path id="tasks" class="cls-1" d="M14.12,6.88l4.15,2.24v1.81a1.18,1.18,0,0,0,2.35,0V10.4l2.17,1.18a1.21,1.21,0,0,0,.57.14,1.14,1.14,0,0,0,.55-.14l8.68-4.69a1.17,1.17,0,0,0,0-2.06L23.92.13a1.18,1.18,0,0,0-1.12,0L14.12,4.82a1.18,1.18,0,0,0-.62,1A1.19,1.19,0,0,0,14.12,6.88Zm9.24,2.33-1.65-.89,5.84-3.56,2,1.09Zm0-6.72,1.8,1L19.32,7,17.15,5.85Zm21.7,9.89-8.67-4.7a1.17,1.17,0,0,0-1.12,0l-8.68,4.7a1.18,1.18,0,0,0,0,2.06l4.15,2.24V18.5a1.18,1.18,0,0,0,2.35,0V18l1.56.85v8l-2.42-1.31V21.63a1.18,1.18,0,0,0-.61-1l-8.68-4.69a1.18,1.18,0,0,0-1.12,0L13.14,20.6a1.18,1.18,0,0,0-.61,1v5l-.92.49v-8l7.47-4a1.17,1.17,0,0,0,0-2.06L10.41,8.28a1.17,1.17,0,0,0-1.12,0L.61,13A1.18,1.18,0,0,0,0,14V24.69a1.17,1.17,0,0,0,.62,1l8.68,4.7a1.15,1.15,0,0,0,.56.14,1.18,1.18,0,0,0,.55-.14l2.13-1.13v3a1.17,1.17,0,0,0,.61,1L21.82,38a1.15,1.15,0,0,0,1.11,0l8.69-4.69a1.19,1.19,0,0,0,.61-1V28.2l3,1.64a1.19,1.19,0,0,0,.56.14,1.14,1.14,0,0,0,.56-.14l8.68-4.7a1.17,1.17,0,0,0,.62-1V13.42A1.17,1.17,0,0,0,45.06,12.38Zm-35.21,5L8.2,16.47,14,12.91l2,1.09Zm0-6.72,1.8,1L5.81,15.18,3.64,14ZM2.35,16l2.41,1.3v1.81a1.18,1.18,0,0,0,2.35,0v-.54l2.15,1.17v8L2.35,24Zm20,9-1.65-.89,5.85-3.56,2,1.09Zm0-6.72,1.81,1L18.34,22.8l-2.17-1.18Zm-7.5,5.33,2.41,1.3v1.81a1.18,1.18,0,0,0,2.35,0v-.54l1.57.85v8l-6.33-3.42v-8Zm20.95-6.82-1.65-.89L40,12.32l2,1.09Zm0-6.72,1.8,1-5.84,3.56-2.17-1.18Z" transform="translate(0.01 0.02)"/></svg>