<svg xmlns="http://www.w3.org/2000/svg" xmlns:xlink="http://www.w3.org/1999/xlink" viewBox="0 0 341.24 511.88"><defs><style>.a{fill:none;}.b{clip-path:url(#a);}.c{fill:#eef0f3;}.d{fill:#676f79;}.e{fill:#444a55;}.f{fill:#fdd447;}.g{fill:#e84f5b;}</style><clipPath id="a" transform="translate(0 -0.12)"><rect class="a" width="342" height="512"/></clipPath></defs><title>smartphone のコピー</title><g class="b"><path class="c" d="M341.24,469.34A42.65,42.65,0,0,1,298.6,512H42.66A42.67,42.67,0,0,1,0,469.34V42.76A42.65,42.65,0,0,1,42.66.12H298.6a42.64,42.64,0,0,1,42.65,42.65V469.34" transform="translate(0 -0.12)"/><path class="d" d="M0,426.68v42.66A42.67,42.67,0,0,0,42.66,512H298.6a42.65,42.65,0,0,0,42.65-42.66V426.68H0" transform="translate(0 -0.12)"/><path class="c" d="M192,469.34A21.34,21.34,0,1,1,170.63,448,21.33,21.33,0,0,1,192,469.34" transform="translate(0 -0.12)"/><path class="e" d="M287.94,320H53.32a10.66,10.66,0,0,0,0,21.32H287.94a10.66,10.66,0,0,0,0-21.32" transform="translate(0 -0.12)"/><path class="e" d="M170.63,362.69c-.17,0-.33,0-.48,0v0H53.32a10.67,10.67,0,0,0,0,21.34H170.15v0a4.61,4.61,0,0,0,.48,0,10.67,10.67,0,0,0,0-21.34" transform="translate(0 -0.12)"/><path class="f" d="M106.13,59.9A128,128,0,1,1,59.3,234.69,128,128,0,0,1,106.13,59.9" transform="translate(0 -0.12)"/><path class="g" d="M280.91,234.69A128,128,0,0,0,170.15,42.75v128l110.76,64" transform="translate(0 -0.12)"/></g></svg>