<svg xmlns="http://www.w3.org/2000/svg" width="39" height="43" viewBox="0 0 39 43">
  <metadata><?xpacket begin="﻿" id="W5M0MpCehiHzreSzNTczkc9d"?>
<x:xmpmeta xmlns:x="adobe:ns:meta/" x:xmptk="Adobe XMP Core 5.6-c138 79.159824, 2016/09/14-01:09:01        ">
   <rdf:RDF xmlns:rdf="http://www.w3.org/1999/02/22-rdf-syntax-ns#">
      <rdf:Description rdf:about=""/>
   </rdf:RDF>
</x:xmpmeta>
                                                                                                    
                                                                                                    
                                                                                                    
                                                                                                    
                                                                                                    
                                                                                                    
                                                                                                    
                                                                                                    
                                                                                                    
                                                                                                    
                                                                                                    
                                                                                                    
                                                                                                    
                                                                                                    
                                                                                                    
                                                                                                    
                                                                                                    
                                                                                                    
                                                                                                    
                                                                                                    
                           
<?xpacket end="w"?></metadata>
<defs>
    <style>
      .cls-1 {
        fill: #fff;
        fill-rule: evenodd;
      }
    </style>
  </defs>
  <path id="楕円形_625" data-name="楕円形 625" class="cls-1" d="M625.364,764.871a2.019,2.019,0,1,1,2.026-2.018A2.022,2.022,0,0,1,625.364,764.871Zm3.583-5.1a2.019,2.019,0,1,1,2.026-2.018A2.022,2.022,0,0,1,628.947,759.772Zm5.118-3.569a2.019,2.019,0,1,1,2.026-2.019A2.023,2.023,0,0,1,634.065,756.2Zm6.256-1.012a2.019,2.019,0,1,1,2.026-2.018A2.023,2.023,0,0,1,640.321,755.191Zm7.262-8.148,4.162,1.965,0.981-2.327-4-1.856Zm5.56-1.294L658,734.441l-3.258-1.482-5.561,10.949Zm-5.941,2.3c-4.654,1.778-3.872,4.422-3.441,7.141s-2.692,2.457-1.512,3.9a1.209,1.209,0,0,0,.988.252h-0.193v0.092c2.559,0,6.831-2.579,8.165-5.693a4.627,4.627,0,0,0,.037-3.815Zm3.669,8.231c0,0.054,0,.109,0,0.158,0,3.706-1.856,3.576-5.63,7.593-1.824,1.941-5.9,10.409-13.706,10.409s-11.013-5.2-11.013-10.2,5.067-14.988,17.528-14.988c0.815,0,1.574.032,2.29,0.085a15.617,15.617,0,0,1,2.79.415,5.262,5.262,0,0,1,1.173-1.278,18.514,18.514,0,0,0-3.869-.664c-0.795-.059-1.575-0.087-2.384-0.087-13.472,0-19.063,10.758-19.063,16.517,0,5.838,3.88,11.728,12.548,11.728,7.085,0,11.343-6.046,13.631-9.295a18.573,18.573,0,0,1,1.2-1.6,33.789,33.789,0,0,1,2.887-2.7c1.833-1.566,3.158-2.7,3.158-5.934a6.723,6.723,0,0,0-.338-1.936A8.869,8.869,0,0,1,650.871,756.283Zm-9.416,3.547a1.871,1.871,0,0,1-.489-1.394,1.523,1.523,0,0,1,.122-0.454,2.293,2.293,0,1,0,3.116,2.461,5.007,5.007,0,0,1-.967.107A2.172,2.172,0,0,1,641.455,759.83Z" transform="translate(-619 -732.969)"/>
</svg>
