<svg xmlns="http://www.w3.org/2000/svg" width="44" height="37" viewBox="0 0 44 37">
  <metadata><?xpacket begin="﻿" id="W5M0MpCehiHzreSzNTczkc9d"?>
<x:xmpmeta xmlns:x="adobe:ns:meta/" x:xmptk="Adobe XMP Core 5.6-c138 79.159824, 2016/09/14-01:09:01        ">
   <rdf:RDF xmlns:rdf="http://www.w3.org/1999/02/22-rdf-syntax-ns#">
      <rdf:Description rdf:about=""/>
   </rdf:RDF>
</x:xmpmeta>
                                                                                                    
                                                                                                    
                                                                                                    
                                                                                                    
                                                                                                    
                                                                                                    
                                                                                                    
                                                                                                    
                                                                                                    
                                                                                                    
                                                                                                    
                                                                                                    
                                                                                                    
                                                                                                    
                                                                                                    
                                                                                                    
                                                                                                    
                                                                                                    
                                                                                                    
                                                                                                    
                           
<?xpacket end="w"?></metadata>
<defs>
    <style>
      .cls-1 {
        fill: #fff;
        fill-rule: evenodd;
      }
    </style>
  </defs>
  <path id="tasks_のコピー" data-name="tasks のコピー" class="cls-1" d="M1193.81,754.626h-3.76v-3.362l-5.66,5.326,5.66,5.321v-3.267h3.84c5.89,0,6.94,4.86,6.94,4.86S1201.66,754.626,1193.81,754.626Zm-4.67,14.2h3.77v3.361l5.66-5.325-5.66-5.321V764.8h-3.85c-5.89,0-6.94-4.861-6.94-4.861S1181.29,768.821,1189.14,768.821Zm-9.35-13.009a11.341,11.341,0,0,0-.48-1.823l-0.7-1.892h-5.55l-0.7,1.892a8.872,8.872,0,0,0-.52,1.823H1169a20.643,20.643,0,0,0,.92-2.048l3.82-10.017a11.448,11.448,0,0,0,.55-1.754h3.02a11.773,11.773,0,0,0,.59,1.754l3.85,10.017a19.889,19.889,0,0,0,.89,2.048h-2.85Zm-3.66-10.85c-0.07-.191-0.12-0.4-0.31-0.972-0.28.816-.28,0.816-0.33,0.972l-1.81,5.138h4.31Zm34.31,25.056a3.256,3.256,0,0,0-.18.427c-0.15.413-.16,0.428-0.21,0.561a3.941,3.941,0,0,1,1.54.723,3.3,3.3,0,0,1,1.4,2.787,4.008,4.008,0,0,1-2.54,3.688,8.209,8.209,0,0,1-3.01.782,4.642,4.642,0,0,0-.78-1.667,6.115,6.115,0,0,0,2.82-.59,2.471,2.471,0,0,0,1.72-2.3,2.158,2.158,0,0,0-1.65-2.036,13.025,13.025,0,0,1-2.56,3.924,5.637,5.637,0,0,1-3.87,2.124,2.33,2.33,0,0,1-2.3-2.582,4.652,4.652,0,0,1,1.46-3.3,6.14,6.14,0,0,1,2.02-1.327c0-.472.03-1.062,0.06-1.771-0.16,0-.96-0.014-2.39-0.059h-0.28c-0.04,0-.18,0-0.34.015V767.76a13.173,13.173,0,0,0,2.76.221h0.32l0.06-.885c0.02-.191.03-0.56,0.03-0.84a0.823,0.823,0,0,0-.03-0.237l1.83,0.089a8.774,8.774,0,0,0-.26,1.815,26.772,26.772,0,0,0,5.59-.783l0.07,1.7a5.237,5.237,0,0,0-.57.059,47.373,47.373,0,0,1-5.2.516c-0.04.634-.05,1.106-0.07,1.416a8.226,8.226,0,0,1,2.04-.191,4.33,4.33,0,0,1,.56.029,5.352,5.352,0,0,0,.29-1.121Zm-7.3,3.908a2.89,2.89,0,0,0-.67,1.8,0.911,0.911,0,0,0,.84,1.076,2.025,2.025,0,0,0,1.29-.56,16.255,16.255,0,0,1-.27-3.334A4.262,4.262,0,0,0,1203.14,773.926Zm2.89,1.225a1.612,1.612,0,0,1,.16-0.207,11.431,11.431,0,0,0,1.83-2.95,3.392,3.392,0,0,0-.38-0.015,5.408,5.408,0,0,0-1.77.266,23,23,0,0,0,.1,2.537,1.131,1.131,0,0,1,.01.191,0.457,0.457,0,0,0,.02.163Z" transform="translate(-1169 -742)"/>
</svg>
