<svg id="レイヤー_1" data-name="レイヤー 1" xmlns="http://www.w3.org/2000/svg" viewBox="0 0 41.97 31.98"><defs><style>.cls-1{fill:none;stroke:#fff;stroke-width:2px;}</style></defs><title>camera</title><path id="楕円形_624" data-name="楕円形 624" class="cls-1" d="M38.83,6.27H31.62C31.14,4.93,30.58,1,29.54,1H12.42c-1,0-1.6,3.93-2.08,5.27H3.17A2.16,2.16,0,0,0,1,8.45H1V28.8A2.16,2.16,0,0,0,3.17,31H38.83A2.16,2.16,0,0,0,41,28.8h0V8.45a2.16,2.16,0,0,0-2.15-2.18ZM21.42,28.74A11.74,11.74,0,1,1,33,16.84q0,.08,0,.16A11.67,11.67,0,0,1,21.42,28.74ZM36,11.74A1.73,1.73,0,1,1,37.74,10v0A1.71,1.71,0,0,1,36,11.73ZM21.42,8.45a8.55,8.55,0,1,0,8.45,8.66s0-.08,0-.12a8.51,8.51,0,0,0-8.45-8.55Z" transform="translate(-0.01 0)"/></svg>