<svg id="レイヤー_1" data-name="レイヤー 1" xmlns="http://www.w3.org/2000/svg" viewBox="0 0 44.01 43.98"><defs><style>.cls-1{fill:#fff;}</style></defs><title>icn_category_system</title><path id="楕円形_622" data-name="楕円形 622" class="cls-1" d="M24.4,1.88V6.12l1.42.35a15.74,15.74,0,0,1,4.44,1.85l1.25.77,1-1,2-2,3.4,3.4-2,2-1,1,.74,1.25a15.74,15.74,0,0,1,1.79,4.41l.34,1.43h4.37V24.4H37.72l-.36,1.4a15.75,15.75,0,0,1-1.82,4.31l-.77,1.25,1,1,2.13,2.12-3.4,3.4-2.16-2.16-1-1-1.25.74a15.81,15.81,0,0,1-4.28,1.76l-1.42.35v4.53H19.59V37.6l-1.42-.35a15.74,15.74,0,0,1-4.28-1.76l-1.25-.74-1,1L9.46,37.93,6,34.53l2.13-2.12,1-1-.77-1.25a15.78,15.78,0,0,1-1.82-4.31l-.36-1.4H1.86V19.6H6.23l.34-1.43a15.75,15.75,0,0,1,1.79-4.41l.74-1.25-1-1-2-2,3.4-3.4,2,2,1,1,1.25-.77a15.76,15.76,0,0,1,4.44-1.85l1.42-.35V1.88H24.4m-2.4,28a8.2,8.2,0,1,0-8.2-8.2,8.2,8.2,0,0,0,8.2,8.2M24.76,0H19.24a1.51,1.51,0,0,0-1.51,1.51V4.66a17.68,17.68,0,0,0-5,2.07L10.53,4.5a1.51,1.51,0,0,0-2.14,0L4.49,8.41a1.51,1.51,0,0,0,0,2.13l2.27,2.27a17.65,17.65,0,0,0-2,4.93H1.5A1.51,1.51,0,0,0,0,19.24v5.52A1.52,1.52,0,0,0,1.5,26.27H4.81a17.6,17.6,0,0,0,2,4.82L4.48,33.46a1.51,1.51,0,0,0,0,2.14l3.91,3.9a1.51,1.51,0,0,0,2.14,0l2.41-2.41a17.57,17.57,0,0,0,4.79,2v3.42A1.51,1.51,0,0,0,19.23,44h5.52a1.51,1.51,0,0,0,1.51-1.51V39.06a17.62,17.62,0,0,0,4.79-2l2.41,2.41a1.51,1.51,0,0,0,2.14,0l3.91-3.9a1.51,1.51,0,0,0,0-2.14l-2.38-2.37a17.63,17.63,0,0,0,2-4.82h3.32A1.51,1.51,0,0,0,44,24.76V19.24a1.51,1.51,0,0,0-1.51-1.51H39.24a17.57,17.57,0,0,0-2-4.93l2.27-2.27a1.51,1.51,0,0,0,0-2.13l-3.9-3.9a1.52,1.52,0,0,0-2.14,0L31.24,6.74a17.66,17.66,0,0,0-5-2.07V1.52A1.51,1.51,0,0,0,24.76,0h0ZM22,28.05a6.33,6.33,0,1,1,6.34-6.33A6.33,6.33,0,0,1,22,28.05Z" transform="translate(0.01 -0.01)"/></svg>