<svg id="レイヤー_1" data-name="レイヤー 1" xmlns="http://www.w3.org/2000/svg" viewBox="0 0 45.98 38.02"><defs><style>.cls-1{fill:#fff;}</style></defs><title>web</title><path id="web" class="cls-1" d="M28.89,36A1.12,1.12,0,0,0,30,34.92,1.12,1.12,0,0,1,28.89,36Zm0-25H3.11A3.17,3.17,0,0,0,0,14.24V34.77A3.17,3.17,0,0,0,3.11,38H28.89A3.17,3.17,0,0,0,32,34.77V14.24A3.17,3.17,0,0,0,28.89,11ZM26,14v2H23.93V14Zm-3,0v2H20.93V14H23ZM3,14H18.1v2H3V14Zm23.91,0H29v2H26.91V14Zm2,22H3.12a1.1,1.1,0,0,1-1.11-1V19H30V34.92A1.12,1.12,0,0,1,28.89,36Zm14-36H17.09A3.16,3.16,0,0,0,14,3.19V9h2V7H44V23.94a1.05,1.05,0,0,1-1,1.06H34.05v2h8.82A3.16,3.16,0,0,0,46,23.82V3.18A3.16,3.16,0,0,0,42.88,0ZM32.1,5H17V3H32.1V5ZM37,5H35V3h2V5Zm3,0H38V3h2Zm3,0H41V3h2Z" transform="translate(-0.01 0.01)"/></svg>